{"title":"Transporter 2(2005)MPEG-4[DaScubaDude]","uid":13621320,"size":868619127,"categoryP":"video","categoryS":"movies","magnet":"?xt=urn:btih:bb5cfc9dd4c62ab385c536ccda1ec0a3b981e645&amp;dn=Transporter+2%282005%29MPEG-4%5BDaScubaDude%5D&amp;tr=udp%3A%2F%2Ftracker.leechers-paradise.org%3A6969&amp;tr=udp%3A%2F%2Fzer0day.ch%3A1337&amp;tr=udp%3A%2F%2Fopen.demonii.com%3A1337&amp;tr=udp%3A%2F%2Ftracker.coppersurfer.tk%3A6969&amp;tr=udp%3A%2F%2Fexodus.desync.com%3A6969","seeders":0,"leechers":0,"uploader":"dascuba","files":1,"time":1455966847,"description":"Transporter 2 (2005)\r\nPG-13 | 1h 27min | Action, Crime, Thriller | 2 September 2005 (USA)\r\nMercenary Frank Martin, who specializes moving goods of all kinds, surfaces again this time in Miami, Florida when he's implicated in the kidnapping of the young son of a powerful USA official.\r\nDirector: Louis Leterrier\r\nWriters: Luc Besson (characters), Robert Mark Kamen (characters) | 2 more credits »\r\nStars: Jason Statham, Amber Valletta, Kate Nauta\r\n\r\nGeneral\r\nComplete name                            :Transporter 2TRANSPORTER_2_A_Title1.mp4\r\nFormat                                   : MPEG-4\r\nFormat profile                           : Base Media\r\nCodec ID                                 : isom\r\nFile size                                : 828 MiB\r\nDuration                                 : 1h 27mn\r\nOverall bit rate                         : 1 322 Kbps\r\nMovie name                               : TRANSPORTER_2_A_Title1\r\nWriting application                      : Lavf54.6.100\r\n\r\nVideo\r\nID                                       : 1\r\nFormat                                   : AVC\r\nFormat/Info                              : Advanced Video Codec\r\nFormat profile                           :   \r\nFormat settings, CABAC                   : No\r\nFormat settings, ReFrames                : 6 frames\r\nCodec ID                                 : avc1\r\nCodec ID/Info                            : Advanced Video Coding\r\nDuration                                 : 1h 27mn\r\nBit rate                                 : 1 188 Kbps\r\nWidth                                    : 720 pixels\r\nHeight                                   : 540 pixels\r\nDisplay aspect ratio                     : 4:3\r\nFrame rate mode                          : Constant\r\nFrame rate                               : 29.970 fps\r\nColor space                              : YUV\r\nChroma subsampling                       : 4:2:0\r\nBit depth                                : 8 bits\r\nScan type                                : Progressive\r\nBits/(Pixel*Frame)                       : 0.102\r\nStream size                              : 744 MiB (90%)\r\n\r\nAudio\r\nID                                       : 2\r\nFormat                                   : AAC\r\nFormat/Info                              : Advanced Audio Codec\r\nFormat profile                           : LC\r\nCodec ID                                 : 40\r\nDuration                                 : 1h 27mn\r\nBit rate mode                            : Constant\r\nBit rate                                 : 128 Kbps\r\nChannel(s)                               : 2 channels\r\nChannel positions                        : Front: L R\r\nSampling rate                            : 44.1 KHz\r\nCompression mode                         : Lossy\r\nStream size                              : 80.3 MiB (10%)","torrent":{"xt":"urn:btih:bb5cfc9dd4c62ab385c536ccda1ec0a3b981e645","amp;dn":"Transporter+2%282005%29MPEG-4%5BDaScubaDude%5D","amp;tr":["udp%3A%2F%2Ftracker.leechers-paradise.org%3A6969","udp%3A%2F%2Fzer0day.ch%3A1337","udp%3A%2F%2Fopen.demonii.com%3A1337","udp%3A%2F%2Ftracker.coppersurfer.tk%3A6969","udp%3A%2F%2Fexodus.desync.com%3A6969"],"infoHash":"bb5cfc9dd4c62ab385c536ccda1ec0a3b981e645","infoHashBuffer":{"type":"Buffer","data":[187,92,252,157,212,198,42,179,133,197,54,204,218,30,192,163,185,129,230,69]},"announce":[],"urlList":[]}}